<svg xmlns="http://www.w3.org/2000/svg" width="57" height="57" viewBox="0 0 57 57">
  <path id="Exclusion_3" data-name="Exclusion 3" d="M19202.5,3866a28.409,28.409,0,1,1,11.094-2.24A28.328,28.328,0,0,1,19202.5,3866Zm6.654-21.564a1.008,1.008,0,0,0-.7.243,1.052,1.052,0,0,0-.285.793,1.658,1.658,0,0,0,.6,1.2,4.387,4.387,0,0,0,1.49,1.176,4.673,4.673,0,0,0,2.012.46h.02a4.811,4.811,0,0,0,2.885-1.017,7.636,7.636,0,0,0,2.293-2.755,8.134,8.134,0,0,0,.9-3.7,9.9,9.9,0,0,0-.59-3.3,11.643,11.643,0,0,0-1.648-3.165,1.639,1.639,0,0,0-1.408-.831,1.271,1.271,0,0,0-.809.269,1.523,1.523,0,0,0-.232,1.9c.27.412.553.885.846,1.406.232.415.463.867.746,1.464a5.592,5.592,0,0,1,.654,2.046,4.286,4.286,0,0,1-.6,2.173,4.922,4.922,0,0,1-1.557,1.637,3.59,3.59,0,0,1-1.949.595,5.182,5.182,0,0,1-2.1-.492A1.591,1.591,0,0,0,19209.154,3844.437Zm-6.6,2.227h.006a1.843,1.843,0,0,0,1.6,1.635c.021,0,.043,0,.063,0s.039,0,.064,0a1.907,1.907,0,0,0,1.809-1.918,1.971,1.971,0,0,0-.568-1.42,1.754,1.754,0,0,0-1.227-.538c-.033,0-.061,0-.092,0a1.849,1.849,0,0,0-1.641,1.6,1.9,1.9,0,0,0-1.6-1.643,1.428,1.428,0,0,0-.148-.008,1.923,1.923,0,0,0-1.783,1.919,2.031,2.031,0,0,0,.584,1.427,1.677,1.677,0,0,0,1.193.533c.035,0,.068,0,.1,0A1.894,1.894,0,0,0,19202.553,3846.664Zm-14.273-11.329a1.125,1.125,0,0,0-.932.58,9.713,9.713,0,0,0-1.463,2.686,8.913,8.913,0,0,0-.525,2.89,5.13,5.13,0,0,0,1.682,4.091,6.818,6.818,0,0,0,4.291,1.534c.113,0,.232-.007.338-.013.066,0,.131,0,.2,0a7.2,7.2,0,0,0,3.1-.706,5.429,5.429,0,0,0,2.215-1.963,5.289,5.289,0,0,0,.8-2.864l.225-15.586a1.406,1.406,0,0,0-.391-1.055,1.342,1.342,0,0,0-.965-.43h-.061a1.4,1.4,0,0,0-1.264,1.464c.029,5.183.057,10.092.092,15.452a2.04,2.04,0,0,1-1.074,1.745,5.022,5.022,0,0,1-2.529.685c-.084,0-.17,0-.26-.007s-.154.006-.23.006a4.044,4.044,0,0,1-2.541-.9,3.159,3.159,0,0,1-.979-2.487,7.31,7.31,0,0,1,1.059-3.573,1.194,1.194,0,0,0,0-1,.938.938,0,0,0-.57-.521A.8.8,0,0,0,19188.279,3835.335Zm14.123-10.591-.082,0a1.377,1.377,0,0,0-1.266,1.253l.012,1.773c.018,3.6.043,7.322.072,11.013a3.135,3.135,0,0,0,1.209,2.621,5.4,5.4,0,0,0,3.055.94c.107,0,.211,0,.313-.006h.07a6.624,6.624,0,0,0,4.25-1.166,4.313,4.313,0,0,0,1.428-3.5,11.742,11.742,0,0,0-.383-2.807,12.7,12.7,0,0,0-.984-2.736,1.551,1.551,0,0,0-1.33-.778,1.249,1.249,0,0,0-.754.242,1.431,1.431,0,0,0-.32,1.758,26.734,26.734,0,0,1,1.029,2.506,7.125,7.125,0,0,1,.377,2.046c-.006.34-.326.623-.945.838a7.263,7.263,0,0,1-2.191.336c-.078,0-.154,0-.232,0s-.156.009-.24.009a3.11,3.11,0,0,1-1.449-.36,1.451,1.451,0,0,1-.479-1.279l.18-11.437A1.375,1.375,0,0,0,19202.4,3824.744Z" transform="translate(-19174 -3809.001)" fill="#0d8f75"/>
</svg>
